<svg width="21" height="19" viewBox="0 0 21 19" fill="none" xmlns="http://www.w3.org/2000/svg">
<path d="M20.6758 1.08603C20.4193 0.772324 20.0351 0.599609 19.5938 0.599609C19.354 0.599609 19.0999 0.650078 18.8387 0.749893L1.06262 7.53558C0.119265 7.89558 -0.00778716 8.43584 0.000383911 8.72583C0.00855498 9.01582 0.166049 9.54806 1.12831 9.85424C1.13408 9.856 1.13985 9.85776 1.14562 9.85937L4.83286 10.9146L6.82692 16.6167C7.09881 17.3941 7.70908 17.877 8.4198 17.877C8.86793 17.877 9.30869 17.6892 9.69449 17.3341L11.9752 15.2342L15.2832 17.8978C15.2835 17.8981 15.284 17.8983 15.2843 17.8986L15.3157 17.9239C15.3186 17.9261 15.3216 17.9285 15.3245 17.9308C15.6922 18.216 16.0936 18.3666 16.4856 18.3667H16.4858C17.2518 18.3667 17.8617 17.7997 18.0394 16.9224L20.952 2.54064C21.069 1.96338 20.9709 1.44684 20.6758 1.08603ZM6.06637 10.7141L13.1802 7.07992L8.75065 11.7866C8.67807 11.8637 8.62664 11.9581 8.60133 12.0608L7.74721 15.5205L6.06637 10.7141ZM8.86088 16.4289C8.8314 16.456 8.80176 16.4802 8.77212 16.5025L9.56456 13.293L11.006 14.4538L8.86088 16.4289ZM19.746 2.29631L16.8335 16.6782C16.8054 16.8158 16.7159 17.1361 16.4856 17.1361C16.3719 17.1361 16.229 17.0741 16.0827 16.9615L12.3342 13.9433C12.3338 13.9428 12.3331 13.9423 12.3325 13.942L10.1021 12.146L16.5077 5.33948C16.7128 5.12158 16.7314 4.78785 16.5518 4.54848C16.372 4.30912 16.0463 4.23382 15.7799 4.37L5.2443 9.75234L1.50691 8.68305L19.2776 1.89945C19.4277 1.84209 19.5325 1.83008 19.5938 1.83008C19.6315 1.83008 19.6985 1.83456 19.7233 1.86517C19.756 1.90506 19.7976 2.04108 19.746 2.29631Z" fill="#86BC42"/>
</svg>
