<svg width="16" height="16" viewBox="0 0 16 16" fill="none" xmlns="http://www.w3.org/2000/svg">
<path d="M1.20805 1.11636L1.07641 1.28433C0.858808 1.56198 0.675727 1.88379 0.539048 2.23226C0.412163 2.56691 0.334409 2.88279 0.298907 3.19704L0.298695 3.19891C-0.0133783 5.78602 1.15251 8.1846 4.49152 11.5236C9.0463 16.0781 12.6919 15.7347 12.8216 15.7212C13.1509 15.6817 13.4663 15.6031 13.7883 15.478C14.1338 15.3431 14.4557 15.1602 14.7336 14.9427L14.8671 14.8383L15.4324 14.2847C15.8491 13.8661 15.8516 13.2098 15.4642 12.8212L12.9939 10.3506C12.6053 9.96348 11.9484 9.96652 11.5306 10.3844L11.5306 10.3844L10.2857 11.629L10.1528 11.7619L9.98828 11.6712C9.90921 11.6276 9.82742 11.5821 9.74149 11.5339C8.95215 11.0965 7.85034 10.4856 6.69226 9.32674C6.69223 9.32671 6.69221 9.32669 6.69218 9.32666M1.20805 1.11636L4.70145 6.15475C5.13815 6.94099 5.73561 8.01667 6.86902 9.14995L6.69218 9.32666M1.20805 1.11636L1.73381 0.587579C1.73388 0.587501 1.73396 0.587424 1.73404 0.587347C2.15274 0.168769 2.80954 0.166311 3.19673 0.553384C3.19674 0.553396 3.19675 0.553408 3.19676 0.55342L5.66759 3.02479C6.05524 3.41292 6.053 4.06944 5.63453 4.48803L5.63444 4.48811L5.22392 4.89914L5.22368 4.89938L4.38843 5.73339L4.25318 5.86844L4.34804 6.03438C4.3845 6.09816 4.42136 6.16485 4.46054 6.23572C4.46703 6.24747 4.47359 6.25933 4.48022 6.27131L4.48042 6.27168L4.48444 6.27892C4.92275 7.06807 5.53402 8.16862 6.69218 9.32666M1.20805 1.11636L6.69218 9.32666" stroke="#86BC42" stroke-width="0.5"/>
</svg>
