<svg width="19" height="15" viewBox="0 0 19 15" fill="none" xmlns="http://www.w3.org/2000/svg">
<path d="M1.96779 4.43313L1.96776 4.43317C2.20702 4.60201 2.93044 5.10498 4.13954 5.94285C5.34831 6.78046 6.27478 7.42572 6.91872 7.8785C6.99116 7.92932 7.14277 8.03815 7.37208 8.20399L7.37213 8.20403C7.60059 8.36934 7.78902 8.5019 7.93777 8.60225C8.0845 8.70112 8.26379 8.8133 8.4765 8.93874C8.68063 9.05905 8.86761 9.14628 9.0379 9.20274L9.03847 9.20293C9.20936 9.26005 9.35903 9.28544 9.48934 9.28544H9.5H9.5107C9.641 9.28544 9.79075 9.26002 9.96168 9.20292L9.96218 9.20275C10.1324 9.1463 10.3195 9.059 10.5234 8.93884C10.7361 8.81317 10.9154 8.70109 11.0621 8.60227C11.2109 8.50197 11.3991 8.36942 11.6278 8.204C11.8574 8.03777 12.0091 7.92919 12.0814 7.87845L12.0822 7.87788C12.7325 7.42554 14.3866 6.27691 17.0439 4.43221C17.5355 4.08891 17.9448 3.67577 18.2737 3.19249L18.2737 3.19238C18.595 2.72076 18.75 2.23545 18.75 1.73236C18.75 1.33349 18.6094 0.99781 18.3204 0.711913L18.3204 0.711885C18.03 0.424513 17.695 0.285889 17.3035 0.285889H1.69636C1.21472 0.285889 0.873465 0.4448 0.63537 0.743071L1.96779 4.43313ZM1.96779 4.43313L1.96384 4.43046M1.96779 4.43313L1.96384 4.43046M1.96384 4.43046C1.55321 4.15228 1.15895 3.76515 0.783336 3.26307L0.783324 3.26305M1.96384 4.43046L0.783324 3.26305M0.783324 3.26305C0.41275 2.76778 0.25 2.33708 0.25 1.96546C0.25 1.46065 0.38327 1.05903 0.635345 0.743102L0.783324 3.26305Z" stroke="#86BC42" stroke-width="0.5"/>
<path d="M18.0807 5.97814L18.0797 5.9788C15.7627 7.54707 14.0053 8.76453 12.807 9.63166C12.4032 9.92911 12.0728 10.1634 11.8169 10.3326C11.8168 10.3327 11.8168 10.3327 11.8168 10.3327L11.6789 10.1242C11.4279 10.2903 11.0941 10.4599 10.6769 10.633L18.0807 5.97814ZM18.0807 5.97814C18.3202 5.81442 18.5433 5.63938 18.75 5.45309V13.2677C18.75 13.6677 18.6107 14.0033 18.3249 14.2891L18.3249 14.2891C18.0392 14.5749 17.7032 14.7143 17.3036 14.7143H1.69647C1.29674 14.7143 0.960765 14.5749 0.675113 14.2891L0.675064 14.2891C0.389336 14.0034 0.25 13.6676 0.25 13.2677V5.45197C0.461378 5.64159 0.688558 5.81736 0.931412 5.97918C3.48974 7.71768 5.24241 8.9346 6.19255 9.63127L18.0807 5.97814ZM9.51083 11.1428C9.91139 11.1428 10.3328 11.0468 10.7728 10.8639L6.34049 9.42974C6.74334 9.7265 7.07029 9.95816 7.32115 10.1242L7.18315 10.3326C7.18316 10.3326 7.18318 10.3326 7.18319 10.3326C7.45221 10.5107 7.80202 10.6874 8.22712 10.8638C8.6672 11.0468 9.08886 11.1428 9.48936 11.1428H9.50002H9.51083Z" stroke="#86BC42" stroke-width="0.5"/>
</svg>
