<svg width="16" height="16" viewBox="0 0 16 16" fill="none" xmlns="http://www.w3.org/2000/svg">
<path d="M15.6413 12.6447L13.1703 10.1735C12.6782 9.68329 11.8631 9.69818 11.3538 10.2077L10.109 11.4523C10.0303 11.4089 9.94889 11.3637 9.8633 11.3156C9.07718 10.88 8.00123 10.283 6.86902 9.14998C5.73346 8.01455 5.13589 6.93695 4.69898 6.15032C4.65287 6.06698 4.6087 5.98663 4.56507 5.91033L5.40057 5.07608L5.81133 4.66481C6.32142 4.15458 6.33549 3.33977 5.84447 2.84816L3.37352 0.376657C2.8825 -0.114269 2.0671 -0.0993755 1.557 0.410856L0.860607 1.11125L0.879637 1.13015C0.646126 1.4281 0.450997 1.77175 0.305787 2.14234C0.171932 2.49509 0.0885941 2.8317 0.0504876 3.169C-0.275785 5.87388 0.960263 8.34593 4.31474 11.7005C8.95164 16.337 12.6884 15.9868 12.8496 15.9697C13.2007 15.9277 13.5372 15.8438 13.8791 15.711C14.2465 15.5675 14.5899 15.3726 14.8877 15.1396L14.9029 15.1532L15.6084 14.4623C16.1174 13.9522 16.1321 13.1371 15.6413 12.6447Z" fill="#86BC42"/>
</svg>
