<svg width="19" height="15" viewBox="0 0 19 15" fill="none" xmlns="http://www.w3.org/2000/svg">
<path d="M1.82363 4.63744C2.06397 4.80704 2.78847 5.31076 3.99715 6.14833C5.20587 6.98591 6.13183 7.63082 6.77507 8.08311C6.84574 8.13268 6.99589 8.24045 7.22557 8.40657C7.4553 8.57279 7.64618 8.70711 7.79807 8.80957C7.95007 8.91199 8.13382 9.02689 8.34951 9.15409C8.56513 9.28117 8.76837 9.37676 8.95922 9.44004C9.1501 9.50384 9.3268 9.53544 9.48934 9.53544H9.5H9.5107C9.67324 9.53544 9.85001 9.5038 10.0409 9.44004C10.2317 9.37676 10.4351 9.28106 10.6505 9.15409C10.8661 9.02675 11.0498 8.91196 11.2018 8.80957C11.3538 8.70711 11.5445 8.57279 11.7744 8.40657C12.004 8.24031 12.1543 8.13268 12.225 8.08311C12.8752 7.63082 14.5294 6.48215 17.187 4.63721C17.703 4.27688 18.1341 3.84208 18.4803 3.33313C18.8269 2.82439 19 2.29071 19 1.73236C19 1.26578 18.832 0.866372 18.4962 0.534186C18.1605 0.201926 17.7628 0.0358887 17.3035 0.0358887H1.69636C1.15212 0.0358887 0.733297 0.21964 0.439956 0.587143C0.146652 0.95472 0 1.41417 0 1.96546C0 2.41077 0.194447 2.89332 0.583154 3.41282C0.971825 3.93236 1.38545 4.3406 1.82363 4.63744Z" fill="#86BC42"/>
<path d="M17.9396 5.77173C15.6214 7.34079 13.8611 8.5602 12.6596 9.42971C12.2567 9.72647 11.9299 9.95813 11.6789 10.1241C11.4279 10.2902 11.0941 10.4599 10.6769 10.633C10.26 10.8063 9.87138 10.8927 9.51083 10.8927H9.50002H9.48936C9.12888 10.8927 8.74006 10.8063 8.32309 10.633C7.90612 10.4599 7.57208 10.2902 7.32115 10.1241C7.07029 9.95813 6.74334 9.72647 6.34049 9.42971C5.38619 8.72999 3.62971 7.5105 1.07098 5.77173C0.667973 5.50331 0.311018 5.19563 0 4.84933V13.2676C0 13.7344 0.166037 14.1336 0.498297 14.4658C0.830482 14.7982 1.22992 14.9643 1.69647 14.9643H17.3036C17.7701 14.9643 18.1695 14.7982 18.5017 14.4658C18.834 14.1335 19 13.7345 19 13.2676V4.84933C18.696 5.18847 18.3427 5.49614 17.9396 5.77173Z" fill="#86BC42"/>
</svg>
