<svg width="42" height="30" viewBox="0 0 42 30" fill="none" xmlns="http://www.w3.org/2000/svg">
<path d="M0 15C0 6.72927 6.72927 0 15 0C23.2707 0 30 6.72927 30 15C30 19.3685 28.1215 23.3062 25.1313 26.0498L25.1455 26.0624L24.6589 26.4725C24.6273 26.4993 24.5929 26.5211 24.5613 26.5473C24.3027 26.7616 24.0349 26.9651 23.7622 27.162C23.6738 27.2258 23.5855 27.2896 23.4955 27.3518C23.2042 27.5525 22.9053 27.7429 22.5998 27.9235C22.5333 27.9627 22.4662 28.0009 22.3991 28.0391C22.0647 28.2295 21.7233 28.4089 21.3736 28.5736C21.348 28.5856 21.3218 28.5965 21.2962 28.6085C20.1567 29.1382 18.9404 29.5271 17.6684 29.7567C17.6351 29.7627 17.6018 29.7687 17.568 29.7747C17.1731 29.8429 16.7738 29.8975 16.3696 29.934C16.3205 29.9384 16.2715 29.9411 16.2218 29.9455C15.8193 29.9787 15.4124 30 15 30C14.5915 30 14.1884 29.9787 13.788 29.9465C13.7373 29.9422 13.6865 29.9395 13.6358 29.9351C13.2349 29.8985 12.8389 29.8456 12.4478 29.7785C12.414 29.7725 12.3796 29.7665 12.3458 29.76C11.0929 29.5353 9.894 29.1551 8.76927 28.6391C8.72782 28.62 8.68582 28.602 8.64436 28.5824C8.30782 28.4242 7.97891 28.2535 7.65654 28.0718C7.57636 28.0265 7.49673 27.9807 7.41709 27.9338C7.12364 27.7609 6.83509 27.5804 6.55473 27.3884C6.45382 27.3196 6.35509 27.2471 6.25527 27.1751C6.01582 27.0027 5.78073 26.8249 5.55218 26.6389C5.50145 26.598 5.44691 26.5625 5.39727 26.5205L4.89818 26.1038L4.91291 26.0913C1.89655 23.3465 0 19.3909 0 15ZM28.9091 15C28.9091 7.33036 22.6696 1.09091 15 1.09091C7.33036 1.09091 1.09091 7.33036 1.09091 15C1.09091 19.1329 2.90454 22.8485 5.77582 25.398C5.93618 25.2873 6.09764 25.188 6.26291 25.1051L10.8813 22.7962C11.2958 22.5889 11.5533 22.1722 11.5533 21.7091V20.0962C11.4464 19.9642 11.3335 19.8147 11.2167 19.6505C10.6189 18.8062 10.1395 17.8669 9.78982 16.8562C9.09873 16.5278 8.65254 15.8395 8.65254 15.0622V13.1285C8.65254 12.6556 8.826 12.1969 9.13636 11.8364V9.29073C9.108 9.00709 9.00764 7.41 10.1635 6.09218C11.1687 4.94455 12.7958 4.36364 15 4.36364C17.2042 4.36364 18.8313 4.94455 19.8365 6.09164C20.9924 7.40945 20.892 9.00764 20.8636 9.29018V11.8358C21.1735 12.1964 21.3475 12.6551 21.3475 13.128V15.0616C21.3475 15.6622 21.078 16.2224 20.6165 16.6004C20.1747 18.3311 19.2655 19.6413 18.9295 20.0853V21.6638C18.9295 22.1089 19.1722 22.518 19.5633 22.7318L23.8762 25.0844C24.0136 25.1591 24.15 25.2464 24.2864 25.344C27.1222 22.7956 28.9091 19.1029 28.9091 15Z" fill="white"/>
<path d="M41.3536 15.3536C41.5488 15.1583 41.5488 14.8417 41.3536 14.6464L38.1716 11.4645C37.9763 11.2692 37.6597 11.2692 37.4645 11.4645C37.2692 11.6597 37.2692 11.9763 37.4645 12.1716L40.2929 15L37.4645 17.8284C37.2692 18.0237 37.2692 18.3403 37.4645 18.5355C37.6597 18.7308 37.9763 18.7308 38.1716 18.5355L41.3536 15.3536ZM33 15.5L41 15.5L41 14.5L33 14.5L33 15.5Z" fill="white"/>
</svg>
