<svg width="14" height="18" viewBox="0 0 14 18" fill="none" xmlns="http://www.w3.org/2000/svg">
<path d="M13.416 14.424V18H1.368V14.688L6.936 8.88C7.976 7.792 8.496 6.776 8.496 5.832C8.496 4.728 7.84 4.176 6.528 4.176C5.856 4.176 5.144 4.312 4.392 4.584C3.656 4.84 2.912 5.216 2.16 5.712L0.744 2.52C1.432 1.96 2.32 1.52 3.408 1.2C4.512 0.863999 5.632 0.696 6.768 0.696C8 0.696 9.072 0.895999 9.984 1.296C10.912 1.68 11.624 2.24 12.12 2.976C12.632 3.696 12.888 4.544 12.888 5.52C12.888 6.512 12.688 7.416 12.288 8.232C11.904 9.032 11.24 9.936 10.296 10.944L6.888 14.424H13.416Z" fill="white"/>
</svg>
