<svg width="14" height="19" viewBox="0 0 14 19" fill="none" xmlns="http://www.w3.org/2000/svg">
<path d="M10.248 9.192C11.24 9.48 12 9.984 12.528 10.704C13.072 11.424 13.344 12.304 13.344 13.344C13.344 14.336 13.072 15.2 12.528 15.936C12 16.656 11.232 17.216 10.224 17.616C9.216 18 8.04 18.192 6.696 18.192C5.496 18.192 4.328 18.032 3.192 17.712C2.072 17.376 1.176 16.928 0.504 16.368L1.92 13.176C3.408 14.2 4.928 14.712 6.48 14.712C7.44 14.712 8.12 14.576 8.52 14.304C8.92 14.016 9.12 13.536 9.12 12.864C9.12 12.224 8.92 11.768 8.52 11.496C8.136 11.224 7.488 11.088 6.576 11.088H3.912V7.632H6.12C7.016 7.632 7.656 7.512 8.04 7.272C8.44 7.016 8.64 6.608 8.64 6.048C8.64 5.44 8.448 4.976 8.064 4.656C7.696 4.336 7.176 4.176 6.504 4.176C5.816 4.176 5.088 4.312 4.32 4.584C3.568 4.84 2.848 5.216 2.16 5.712L0.744 2.52C1.432 1.976 2.328 1.536 3.432 1.2C4.552 0.863999 5.68 0.696 6.816 0.696C8.032 0.696 9.096 0.888 10.008 1.272C10.92 1.656 11.624 2.208 12.12 2.928C12.632 3.632 12.888 4.456 12.888 5.4C12.904 6.296 12.68 7.072 12.216 7.728C11.752 8.384 11.096 8.872 10.248 9.192Z" fill="white"/>
</svg>
