<svg width="59" height="59" viewBox="0 0 59 59" fill="none" xmlns="http://www.w3.org/2000/svg">
<g clip-path="url(#clip0)">
<path d="M49.6034 14.1792H16.8893L44.1695 3.32351C44.7985 3.07371 45.1044 2.36144 44.8551 1.73242C44.6053 1.10341 43.893 0.797497 43.264 1.04684L10.2928 14.1792H9.36281C5.04252 14.1792 -5.72205e-06 16.6269 -5.72205e-06 23.542V48.8026C-5.72205e-06 55.7177 5.04252 58.1654 9.36281 58.1654H49.6034C53.9237 58.1654 58.9663 55.7177 58.9663 48.8026V23.5542C58.9785 16.6392 53.9604 14.1792 49.6034 14.1792ZM56.5307 48.8026C56.5307 55.0443 51.6353 55.7177 49.6157 55.7177H9.36281C7.28208 55.7177 2.44772 55.0443 2.44772 48.8026V23.5542C2.44772 17.3125 7.34317 16.6392 9.36281 16.6392H49.6034C51.6842 16.6392 56.5185 17.3125 56.5185 23.5542L56.5307 48.8026Z" fill="white"/>
<path d="M12.1164 30.0041H46.8498C47.5254 30.0041 48.0739 29.4557 48.0739 28.78V21.7183C48.0739 21.0427 47.5254 20.4942 46.8498 20.4942H12.1164C11.4408 20.4942 10.8923 21.0427 10.8923 21.7183V28.78C10.8923 29.4557 11.4408 30.0041 12.1164 30.0041ZM45.6261 27.556H36.9733V22.942H45.6261V27.556ZM13.34 22.942H34.5256V27.556H13.34V22.942Z" fill="white"/>
<path d="M43.6554 34.1529C38.6401 34.1529 34.5745 38.2184 34.5745 43.2338C34.5745 48.2496 38.6401 52.3151 43.6554 52.3151C48.6713 52.3151 52.7368 48.2496 52.7368 43.2338C52.7368 38.2184 48.6708 34.1529 43.6554 34.1529ZM43.6554 49.8674C39.9927 49.8674 37.0223 46.897 37.0223 43.2338C37.0223 39.571 39.9927 36.6006 43.6554 36.6006C47.3187 36.6006 50.289 39.571 50.289 43.2338C50.2818 46.8948 47.3159 49.8602 43.6554 49.8674Z" fill="white"/>
<path d="M26.0194 42.6342C23.431 42.6342 21.3321 44.7335 21.3321 47.3215C21.3321 49.9104 23.431 52.0092 26.0194 52.0092C28.6079 52.0092 30.7072 49.9099 30.7072 47.3215C30.7072 44.7321 28.6079 42.6342 26.0194 42.6342ZM26.0194 49.5493C24.7822 49.5493 23.7799 48.5469 23.7799 47.3097C23.7799 46.0721 24.7822 45.0697 26.0194 45.0697C27.2571 45.0697 28.259 46.0721 28.259 47.3097C28.259 48.5456 27.2571 49.5493 26.0194 49.5493Z" fill="white"/>
<path d="M13.8786 42.6342C11.2902 42.6342 9.19133 44.7335 9.19133 47.3215C9.19133 49.9104 11.2902 52.0092 13.8786 52.0092C16.4671 52.0092 18.5659 49.9099 18.5659 47.3215C18.5664 44.7321 16.4671 42.6342 13.8786 42.6342ZM13.8786 49.5493C12.6414 49.5493 11.6391 48.5469 11.6391 47.3097C11.6391 46.0721 12.6414 45.0697 13.8786 45.0697C15.1158 45.0697 16.1182 46.0721 16.1182 47.3097C16.1182 48.5469 15.1158 49.5493 13.8786 49.5493Z" fill="white"/>
</g>
<defs>
<clipPath id="clip0">
<rect width="59" height="59" fill="white"/>
</clipPath>
</defs>
</svg>
