<svg width="55" height="55" viewBox="0 0 55 55" fill="none" xmlns="http://www.w3.org/2000/svg">
<g clip-path="url(#clip0)">
<path d="M51.3666 29.1585C50.7408 29.1585 50.1515 29.3175 49.6369 29.5973C49.1104 28.2389 47.7906 27.2728 46.2485 27.2728C45.2512 27.2728 44.3466 27.6769 43.6894 28.3297C43.0322 27.6769 42.1277 27.2728 41.1304 27.2728C40.6016 27.2728 40.0993 27.3873 39.6457 27.5913V24.4869C39.6787 24.49 39.7123 24.4919 39.7462 24.4919H48.6622C50.4984 24.4919 51.9922 22.9981 51.9922 21.1619V16.5427C51.9922 15.9495 51.5112 15.4684 50.918 15.4684C50.3248 15.4684 49.8438 15.9495 49.8438 16.5427V21.162C49.8438 21.8135 49.3137 22.3436 48.6622 22.3436H39.7462C39.7123 22.3436 39.6788 22.3457 39.6457 22.3487V20.0483C39.6457 18.0451 38.0158 16.4151 36.0123 16.4151C34.009 16.4151 32.3791 18.0451 32.3791 20.0483V22.3436H30.8302C30.1787 22.3436 29.6486 21.8135 29.6486 21.162V3.33006C29.6486 2.67855 30.1787 2.14843 30.8302 2.14843H48.6622C49.3137 2.14843 49.8438 2.67855 49.8438 3.33006V7.94917C49.8438 8.54235 50.3248 9.02339 50.918 9.02339C51.5112 9.02339 51.9922 8.54235 51.9922 7.94917V3.33006C51.9922 1.4938 50.4984 0 48.6622 0H30.8302C28.994 0 27.5002 1.4938 27.5002 3.33006V21.162C27.5002 22.9982 28.994 24.492 30.8302 24.492H32.3791V33.6033L28.6772 39.0301C27.4351 40.8508 27.2452 43.2215 28.1811 45.2167L32.4808 54.3817C32.6636 54.7713 33.0504 54.9999 33.4541 54.9999C33.6069 54.9999 33.7621 54.9671 33.9096 54.8981C34.4467 54.646 34.6777 54.0064 34.426 53.4692L30.1263 44.3043C29.5114 42.9937 29.6363 41.4367 30.452 40.2409L32.3791 37.4158V39.4467C32.3791 40.0399 32.8602 40.5209 33.4534 40.5209C34.0465 40.5209 34.5276 40.0399 34.5276 39.4467V20.0485C34.5276 19.2297 35.1936 18.5637 36.0123 18.5637C36.8311 18.5637 37.4972 19.2297 37.4972 20.0485V35.9153C37.4972 36.5085 37.9783 36.9895 38.5714 36.9895C39.1646 36.9895 39.6457 36.5085 39.6457 35.9153V30.9061C39.6457 30.0873 40.3117 29.4213 41.1304 29.4213C41.9492 29.4213 42.6152 30.0873 42.6152 30.9061V35.9153C42.6152 36.5085 43.0962 36.9895 43.6894 36.9895C44.2826 36.9895 44.7636 36.5085 44.7636 35.9153V30.9061C44.7636 30.0873 45.4298 29.4213 46.2485 29.4213C47.0673 29.4213 47.7333 30.0873 47.7333 30.9061V35.9153C47.7333 36.5085 48.2143 36.9895 48.8075 36.9895C49.4007 36.9895 49.8817 36.5085 49.8817 35.9153V32.7918C49.8817 31.9731 50.5478 31.3071 51.3666 31.3071C52.1854 31.3071 52.8514 31.9731 52.8514 32.7918V41.7723C52.8514 44.1644 52.4885 46.5345 51.7728 48.8167L50.2714 53.6041C50.094 54.1702 50.4089 54.773 50.9751 54.9505C51.082 54.9841 51.1903 55 51.2968 55C51.7537 54.9999 52.1775 54.706 52.3215 54.2469L53.8228 49.4595C54.6038 46.9689 54.9998 44.3825 54.9998 41.7721V32.7917C54.9998 30.7884 53.37 29.1585 51.3666 29.1585Z" fill="white"/>
<path d="M21.163 0H3.33107C1.49481 0 0.00100708 1.4938 0.00100708 3.33006V21.162C0.00100708 22.9982 1.49481 24.492 3.33107 24.492H7.95018C8.54336 24.492 9.02439 24.011 9.02439 23.4178C9.02439 22.8247 8.54336 22.3436 7.95018 22.3436H3.33107C2.67956 22.3436 2.14943 21.8135 2.14943 21.162V3.33006C2.14943 2.67855 2.67956 2.14843 3.33107 2.14843H21.163C21.8145 2.14843 22.3446 2.67855 22.3446 3.33006V21.162C22.3446 21.8135 21.8145 22.3436 21.163 22.3436H16.5439C15.9507 22.3436 15.4697 22.8247 15.4697 23.4178C15.4697 24.011 15.9507 24.492 16.5439 24.492H21.163C22.9993 24.492 24.4931 22.9982 24.4931 21.162V3.33006C24.4931 1.4938 22.9993 0 21.163 0Z" fill="white"/>
<path d="M16.7786 16.7782C17.198 16.3587 17.198 15.6785 16.7786 15.259L13.7655 12.2461L16.7786 9.23312C17.198 8.81364 17.198 8.13344 16.7786 7.71385C16.3591 7.29459 15.6791 7.29437 15.2593 7.71385L12.2462 10.7268L9.23325 7.71385C8.81366 7.29448 8.13368 7.29448 7.71398 7.71385C7.2945 8.13334 7.2945 8.81353 7.71398 9.23312L10.7271 12.2461L7.71398 15.2591C7.2945 15.6785 7.2945 16.3587 7.71398 16.7783C7.92377 16.988 8.19867 17.093 8.47356 17.093C8.74845 17.093 9.02335 16.988 9.23314 16.7783L12.2462 13.7654L15.2593 16.7783C15.4691 16.988 15.744 17.093 16.0189 17.093C16.2938 17.093 16.5688 16.988 16.7786 16.7782Z" fill="white"/>
<path d="M44.5193 7.00914L39.1661 12.3623L36.9187 10.1148C36.4991 9.69544 35.8191 9.69544 35.3994 10.1148C34.9799 10.5343 34.9799 11.2145 35.3994 11.6341L38.4065 14.6411C38.6162 14.8508 38.8911 14.9558 39.166 14.9558C39.4409 14.9558 39.7158 14.8508 39.9256 14.6411L46.0384 8.52841C46.4578 8.10893 46.4578 7.42873 46.0384 7.00914C45.6189 6.58977 44.9389 6.58977 44.5193 7.00914Z" fill="white"/>
<path d="M12.2462 22.3432C11.9636 22.3432 11.6865 22.4581 11.4867 22.6581C11.2869 22.8578 11.1719 23.1349 11.1719 23.4174C11.1719 23.6999 11.2868 23.9771 11.4867 24.1769C11.6865 24.3778 11.9636 24.4916 12.2462 24.4916C12.5287 24.4916 12.8058 24.3778 13.0055 24.1769C13.2053 23.9771 13.3204 23.6999 13.3204 23.4174C13.3204 23.1349 13.2054 22.8578 13.0055 22.6581C12.8058 22.4581 12.5287 22.3432 12.2462 22.3432Z" fill="white"/>
<path d="M50.9178 11.1714C50.6353 11.1714 50.3581 11.2863 50.1583 11.4862C49.9585 11.6859 49.8436 11.9631 49.8436 12.2456C49.8436 12.5293 49.9584 12.8053 50.1583 13.0051C50.3581 13.206 50.6353 13.3198 50.9178 13.3198C51.2003 13.3198 51.4775 13.206 51.6772 13.0051C51.877 12.8053 51.992 12.5281 51.992 12.2456C51.992 11.9631 51.8771 11.6859 51.6772 11.4862C51.4775 11.2863 51.2003 11.1714 50.9178 11.1714Z" fill="white"/>
</g>
<defs>
<clipPath id="clip0">
<rect width="55" height="55" fill="white"/>
</clipPath>
</defs>
</svg>
