<svg width="31" height="39" viewBox="0 0 31 39" fill="none" xmlns="http://www.w3.org/2000/svg">
<path d="M15.4999 5.5C23.7847 5.5 30.5 12.2162 30.5 20.5001C30.5 28.7848 23.7847 35.5 15.4999 35.5C7.2152 35.5 0.5 28.7847 0.5 20.5001C0.5 12.2162 7.21533 5.5 15.4999 5.5Z" stroke="#86BC42"/>
<path d="M16.3418 30H14.2344V16.0859H16.3418V30ZM14.0566 12.3154C14.0566 11.833 14.1751 11.4818 14.4121 11.2617C14.6491 11.0332 14.9453 10.9189 15.3008 10.9189C15.6393 10.9189 15.9313 11.0332 16.1768 11.2617C16.4222 11.4902 16.5449 11.8415 16.5449 12.3154C16.5449 12.7894 16.4222 13.1449 16.1768 13.3818C15.9313 13.6104 15.6393 13.7246 15.3008 13.7246C14.9453 13.7246 14.6491 13.6104 14.4121 13.3818C14.1751 13.1449 14.0566 12.7894 14.0566 12.3154Z" fill="#86BC42"/>
</svg>
